<?xml version="1.0" encoding="UTF-8"?>
<svg width="72px" height="72px" viewBox="0 0 72 72" version="1.1" xmlns="http://www.w3.org/2000/svg" xmlns:xlink="http://www.w3.org/1999/xlink">
    <!-- Generator: Sketch 64 (93537) - https://sketch.com -->
    <title>logo</title>
    <desc>Created with Sketch.</desc>
    <defs>
        <rect id="path-1" x="0" y="0" width="72" height="72"></rect>
        <polygon id="path-3" points="0.970299 0.30789 35.617329 0.30789 35.617329 40.612077 0.970299 40.612077"></polygon>
        <polygon id="path-5" points="-3.39728246e-14 0.409635364 23.78475 0.409635364 23.78475 40.59 -3.39728246e-14 40.59"></polygon>
    </defs>
    <g id="Page-1" stroke="none" stroke-width="1" fill="none" fill-rule="evenodd">
        <g id="TM-icons" transform="translate(0.000000, -175.000000)">
            <g id="logo" transform="translate(0.000000, 175.000000)">
                <g id="ic/40/logo_Tworld/Bk">
                    <g stroke-width="1" fill-rule="evenodd">
                        <mask id="mask-2" fill="white">
                            <use xlink:href="#path-1"></use>
                        </mask>
                        <g id="Rectangle"></g>
                        <g id="Group-3" mask="url(#mask-2)">
                            <g transform="translate(11.000000, 18.000000)" id="Group-2">
                                <g>
                                    <g id="Group-18" transform="translate(0.250000, 0.000000)">
                                        <g id="Group-3" transform="translate(3.959703, 0.000000)">
                                            <mask id="mask-4" fill="white">
                                                <use xlink:href="#path-3"></use>
                                            </mask>
                                            <g id="Clip-2"></g>
                                            <path d="M19.093239,40.126977 C18.627939,39.895317 18.176499,39.579507 17.771589,39.184497 L17.771589,29.729997 C17.771589,27.210447 18.468549,25.028487 20.299059,24.359247 L28.106199,21.549627 C28.300239,21.056607 28.664559,20.067597 28.634859,18.683577 C28.593279,16.534287 28.043829,14.652297 27.125109,13.118787 C26.004429,11.239767 24.327369,9.892377 22.350339,9.238977 L0.970299,2.491137 L6.545979,0.475497 C7.282539,0.225027 7.915149,0.281457 8.590329,0.472527 L30.405969,7.351047 C32.187969,7.951977 33.448239,9.281547 34.282809,10.777437 C35.221329,12.469347 35.617329,14.373117 35.617329,15.685857 C35.617329,17.692587 34.936209,20.014137 32.817609,20.792277 C31.563279,21.251637 29.054619,22.162437 25.290639,23.523687 C25.083729,24.018687 24.756039,24.939387 24.756039,26.978787 C24.756039,28.139067 24.737229,34.380027 24.737229,35.499717 C24.737229,36.839187 24.418449,38.118267 23.789799,39.062727 C23.163129,40.003227 22.230549,40.612077 20.999979,40.612077 C20.388159,40.612077 19.726839,40.445757 19.093239,40.126977" id="Fill-1" fill="#000000" mask="url(#mask-4)"></path>
                                        </g>
                                        <g id="Group-6" transform="translate(0.000000, 2.970000)">
                                            <mask id="mask-6" fill="white">
                                                <use xlink:href="#path-5"></use>
                                            </mask>
                                            <g id="Clip-5"></g>
                                            <path d="M16.137,14.722983 C17.25966,16.447563 17.83089,18.611703 17.83089,20.448153 L17.83089,28.380033 C17.83089,33.289443 20.07918,37.292013 23.78475,38.434473 L18.06354,40.426353 C17.54973,40.610493 17.03988,40.622373 16.56963,40.545153 C15.99642,40.449123 15.48855,40.216473 15.11928,39.977883 C13.83327,39.143313 12.8304,38.095893 12.1176,36.792063 C11.29194,35.273403 10.86822,33.400323 10.86822,31.092633 C10.86822,29.076993 10.85634,26.319843 10.85634,22.769703 C10.85634,20.744163 10.00296,18.377073 8.68131,16.631703 C7.69032,15.314013 6.54588,14.488353 5.08563,13.963653 C3.90654,13.537953 2.82051,12.643983 1.9602,11.481723 C0.76626,9.870003 -3.39728246e-14,7.743483 -3.39728246e-14,5.640723 C-3.39728246e-14,3.947823 0.46431,2.594493 1.22364,1.691613 C1.86021,0.930303 2.70468,0.485793 3.6531,0.416493 C4.1085,0.384813 4.4847,0.466983 4.85001,0.578853 C5.67666,0.834273 6.42213,1.074843 7.08543,1.305513 C6.3954,4.908123 8.47638,10.433313 12.67398,11.930193 C14.32233,12.518253 15.29649,13.432023 16.137,14.722983" id="Fill-4" fill="#000000" mask="url(#mask-6)"></path>
                                        </g>
                                    </g>
                                </g>
                            </g>
                        </g>
                    </g>
                    <path d="M49.005,27 L50.922,27 L51.678,20.952 L55.404,20.952 L54.675,27 L56.619,27 L57.348,20.952 L60.156,20.952 L60.156,18.873 L57.591,18.873 L58.104,14.742 L60.777,14.742 L60.777,12.663 L58.347,12.663 L59.022,7.263 L57.105,7.263 L56.403,12.663 L52.677,12.663 L53.325,7.263 L51.435,7.263 L50.733,12.663 L47.979,12.663 L47.979,14.742 L50.49,14.742 L49.977,18.873 L47.385,18.873 L47.385,20.952 L49.734,20.952 L49.005,27 Z M51.894,18.873 L52.407,14.742 L56.16,14.742 L55.647,18.873 L51.894,18.873 Z" id="#" fill="#000000" fill-rule="nonzero"></path>
                </g>
            </g>
        </g>
    </g>
</svg>